<svg width="65" height="13" viewBox="0 0 65 13" fill="none" xmlns="http://www.w3.org/2000/svg">
<path fill-rule="evenodd" clip-rule="evenodd" d="M0 6.42708C0 6.18361 0.422551 5.95012 1.17469 5.77796C1.92684 5.60581 2.94696 5.50909 4.01065 5.50909L50.4781 5.50909L33.2563 1.56908C32.8834 1.48373 32.5876 1.38241 32.3858 1.27089C32.184 1.15937 32.0802 1.03985 32.0802 0.919146C32.0802 0.798441 32.184 0.678918 32.3858 0.567402C32.5876 0.455886 32.8834 0.35456 33.2563 0.269209C33.6292 0.183858 34.0719 0.116154 34.5591 0.0699625C35.0463 0.0237713 35.5685 -2.86102e-06 36.0959 -2.86102e-06C36.6232 -2.86102e-06 37.1454 0.0237713 37.6326 0.0699625C38.1198 0.116154 38.5625 0.183858 38.9354 0.269209L62.9993 5.77714C63.3728 5.86242 63.6692 5.96372 63.8714 6.07525C64.0735 6.18677 64.1776 6.30633 64.1776 6.42708C64.1776 6.54783 64.0735 6.66739 63.8714 6.77892C63.6692 6.89044 63.3728 6.99174 62.9993 7.07702L38.9354 12.585C38.5625 12.6703 38.1198 12.738 37.6326 12.7842C37.1454 12.8304 36.6232 12.8542 36.0959 12.8542C35.5685 12.8542 35.0463 12.8304 34.5591 12.7842C34.0719 12.738 33.6292 12.6703 33.2563 12.585C32.5032 12.4126 32.0802 12.1788 32.0802 11.935C32.0802 11.8143 32.184 11.6948 32.3858 11.5833C32.5876 11.4718 32.8834 11.3704 33.2563 11.2851L50.4781 7.34507L4.01065 7.34507C2.94696 7.34507 1.92684 7.24835 1.17469 7.0762C0.422551 6.90404 0 6.67055 0 6.42708Z" fill="#E9BD8C"/>
</svg>
